PathFileType	4	(X/Y/Z)	C:/Users/beibeiliu/ov580/test_trc\sequence.30_training_dense_left.trc
DataRate	CameraRate	NumFrames	NumMarkers	Units	OrigDataRate	OrigDataStartFrame	OrigNumFrames
120	120	12	19	mm	120	1	88
Frame#	Time	ThumbCMC			ThumbMCP			ThumbIP			ThumbTip			IndexMCP			IndexPIP			IndexTip			MiddleMCP			MiddlePIP			MiddleTip			RingMCP			RingPIP			RingTip			PinkyMCP			PinkyPIP			PinkyTip			BackHand1			BackHand2			BackHand3	
		X0	Y0	Z0	X1	Y1	Z1	X2	Y2	Z2	X3	Y3	Z3	X4	Y4	Z4	X5	Y5	Z5	X6	Y6	Z6	X7	Y7	Z7	X8	Y8	Z8	X9	Y9	Z9	X10	Y10	Z10	X11	Y11	Z11	X12	Y12	Z12	X13	Y13	Z13	X14	Y14	Z14	X15	Y15	Z15	X16	Y16	Z16	X17	Y17	Z17	X18	Y18	Z18	
0	0	-121.904	40.4566	37.1963	-108.596	21.8669	18.37	-99.7345	10.6376	-2.26168	-101.128	-3.16132	-24.6135	-128.774	37.8336	-31.1393	-121.772	23.3862	-50.4371	-115.91	-2.15789	-65.7015	-147.924	32.9594	-38.6049	-145.915	15.9718	-60.4137	-143.504	-10.6058	-71.359	-166.094	28.4262	-34.867	-165.409	15.795	-51.9853	-161.903	-4.20699	-64.7346	-188.858	22.7591	-20.8183	-189.668	13.5299	-34.4733	-186.542	1.37848	-53.2582	-170.736	50.7819	6.89982	-173.635	57.3958	37.275	-147.224	59.6173	21.4744	
1	0.00833333	-125.56	40.0307	34.9623	-109.93	22.842	17.1043	-107.046	12.0603	-2.32248	-103.523	-2.40946	-23.3272	-131.171	37.3616	-32.5468	-125.065	20.3977	-53.6978	-120.034	-4.14803	-64.7161	-149.064	32.056	-40.8703	-147.37	18.1015	-58.8574	-145.69	-10.6772	-71.3344	-172.668	28.6086	-33.0837	-166.283	15.2449	-51.7805	-162.252	-7.93441	-67.6679	-188.068	24.4808	-17.277	-191.937	10.5387	-38.6447	-191.597	1.6513	-52.5669	-175.259	49.8938	10.4996	-174.645	58.4229	34.3209	-148.225	58.8174	19.8306	
2	0.0166667	-127.158	39.6259	36.803	-112.974	23.2174	19.7225	-104.957	10.5082	-5.24119	-105.029	-0.332419	-19.2226	-126.617	35.9863	-35.1856	-126.344	21.5883	-51.9008	-117.417	-0.337219	-62.8428	-152.727	33.6619	-38.3414	-148.439	17.1277	-59.5044	-144.079	-8.05373	-71.3674	-168.71	30.3546	-31.5349	-166.855	11.9246	-54.8495	-164.529	-7.27842	-67.0244	-190.814	24.7546	-19.2246	-192.89	11.4573	-36.8983	-189.938	0.212326	-51.6886	-176.943	50.6958	9.43116	-174.866	57.063	34.0369	-151.06	58.758	22.3276	
3	0.025	-123.799	39.3972	32.0517	-113.735	22.6327	16.3433	-106.566	11.1079	-3.67075	-103.77	-0.803111	-18.6669	-129.465	36.1122	-35.1908	-121.798	20.3394	-54.8414	-122.955	0.786214	-63.6144	-150.476	34.4095	-37.4355	-148.439	15.3279	-61.3663	-146.571	-9.97427	-71.3033	-168.178	29.6809	-34.6845	-167.766	12.6381	-54.6573	-163.067	-2.98431	-65.0391	-186.114	25.588	-18.9747	-188.756	13.814	-38.7495	-190.073	1.00612	-53.7702	-174.76	49.3848	6.29704	-178.638	56.613	32.0049	-149.331	58.748	19.0099	
4	0.0333333	-129.327	40.0025	34.7655	-112.51	23.8576	13.9162	-103.398	12.7447	-3.14532	-101.203	0.0751215	-21.9162	-128.096	40.2245	-32.913	-124.516	27.2082	-53.4304	-117.947	5.65262	-66.6494	-148.328	34.2453	-43.7651	-144.967	14.2011	-62.9576	-143.062	-7.94809	-71.5098	-172.85	27.9382	-34.4177	-165.31	11.2953	-56.584	-161.174	-10.2137	-64.9288	-191.39	21.8478	-21.6073	-186.889	12.5866	-38.5698	-186.94	-3.47238	-53.9846	-176.944	50.1455	5.83301	-174.391	57.0461	30.2407	-151.407	57.6731	18.3336	
5	0.0416667	-131.539	43.0584	29.5772	-115.148	29.5372	13.6508	-105.749	19.797	-7.68073	-98.7682	7.46798	-23.9766	-130.781	44.9728	-32.6658	-128.827	30.0636	-58.0052	-118.975	14.1239	-70.1313	-154.259	34.0323	-43.8261	-146.525	18.1607	-63.4095	-143.088	-9.17313	-70.6583	-174.272	26.708	-36.0614	-165.916	7.428	-56.1783	-157.769	-12.3922	-59.1688	-189.998	20.8236	-23.5725	-186.027	9.62807	-39.1748	-178.776	-11.076	-49.2781	-177.801	49.4947	8.11287	-181.3	54.344	30.7039	-153.073	59.4563	18.6897	
6	0.05	-133.666	47.9219	29.3157	-115.254	36.0204	12.7055	-107.037	27.4698	-2.99228	-97.5175	19.6119	-21.512	-137.905	47.9598	-38.446	-129.05	41.3717	-55.9019	-121.802	24.4178	-73.7153	-157.255	35.4097	-45.7291	-147.316	22.8916	-63.7875	-136.775	-6.88684	-71.9705	-170.542	27.2881	-35.5858	-161.602	6.37479	-53.2225	-144.264	-16.4188	-47.741	-190.921	14.9133	-25.7011	-179.176	-2.08558	-41.2668	-163.831	-17.3813	-40.3128	-180.609	46.0749	7.02608	-188.322	51.5202	30.4043	-162.9	60.8844	18.1219	
7	0.0583333	-138.428	50.281	34.0952	-119.203	39.8613	16.3752	-103.423	37.0468	-4.45548	-91.1356	31.4234	-18.1535	-139.855	52.7237	-36.847	-128.82	45.3048	-59.5603	-122.878	33.0679	-75.4248	-156.312	37.6013	-45.7827	-146.704	24.1865	-64.5946	-128.086	-3.2629	-70.906	-168.2	24.1343	-37.5739	-156.244	-0.0843048	-47.9814	-141.295	-14.7749	-32.7205	-185.285	8.55022	-29.7844	-169.569	-5.45688	-35.7839	-148.726	-15.4954	-19.6459	-188.374	41.6091	4.84222	-191.651	47.878	27.3285	-165.168	62.2172	17.0391	
8	0.0666667	-140.469	51.3967	31.4045	-121.103	43.751	13.8482	-107.938	42.4282	-2.37482	-91.4356	41.9686	-18.8685	-141.993	55.0747	-34.2014	-131.117	49.0248	-60.0955	-116.4	39.4079	-77.8805	-156.008	38.7439	-42.5819	-143.657	21.0435	-65.8225	-125.287	0.536007	-70.3876	-164.222	17.6673	-37.9996	-146.589	-3.25551	-39.6657	-133.023	-7.57326	-13.908	-179.103	3.43147	-24.8188	-157.357	-9.22035	-25.96	-142.323	-8.68722	-2.47362	-186.128	38.7335	2.75191	-193.991	42.708	29.733	-169.114	58.0883	17.9033	
9	0.075	-146.318	55.4901	31.7071	-120.892	54.7337	15.0209	-107.139	56.8456	0.902967	-95.4841	54.9411	-14.5052	-143.681	57.5274	-36.3915	-136.576	52.1413	-56.8498	-121.47	45.0936	-77.2159	-153.026	38.1292	-45.0672	-137.329	26.051	-63.8683	-117.274	6.36695	-68.3601	-154.652	16.2037	-36.5381	-136.781	-3.20218	-32.4032	-128.29	-0.542208	-4.25583	-167.404	2.88725	-21.6564	-143.801	-8.16282	-13.2598	-138.081	2.94764	7.68605	-188.579	32.5736	1.65149	-194.552	38.4902	24.5331	-173.289	58.2021	17.0648	
10	0.0833333	-151.619	63.7559	27.6463	-129.278	64.5324	13.7181	-114.255	68.3803	-2.83808	-100.062	74.0162	-15.7589	-146.679	54.3797	-39.1814	-134.505	53.298	-57.5304	-118.792	45.4121	-77.7384	-149.262	32.6108	-45.5208	-131.149	23.6954	-58.7628	-107.897	6.11922	-61.4984	-149.856	8.3381	-29.7457	-125.062	1.15864	-21.3593	-122.425	10.8216	7.6893	-156.727	-0.205636	-16.5277	-132.802	-2.37427	-4.50143	-135.02	12.5775	15.0433	-186.834	26.3548	1.59846	-193.478	32.8422	22.9665	-180.021	54.6622	12.745	
11	0.0916667	-159.277	64.5059	27.9418	-135.929	74.875	13.4188	-122.467	80.1783	-3.50529	-111.636	83.6435	-16.2199	-146.283	54.4097	-40.7006	-132.234	52.1883	-59.0863	-119.39	47.7597	-73.9243	-145.358	30.5912	-40.8872	-121.645	20.7367	-53.7551	-92.5889	11.5903	-52.2366	-142.998	10.2636	-24.432	-117.279	10.8553	-14.3609	-118.035	17.7469	12.889	-142.895	0.986083	-13.0683	-126.451	4.62555	-0.62633	-133.999	19.9223	22.1051	-184.373	22.0104	-0.495021	-195.141	27.1536	23.8548	-179.952	53.7139	9.37132	
